<svg width="24" height="43" viewBox="0 0 24 43" fill="none" xmlns="http://www.w3.org/2000/svg">
<path fill-rule="evenodd" clip-rule="evenodd" d="M4.61758 20.9151C2.07664 17.8132 0.356888 14.0119 0.64426 9.75238C1.47226 -2.52048 17.8994 0.17939 21.0948 6.37367C24.2903 12.568 23.9106 28.2803 19.7808 29.3874C18.1338 29.8289 14.6253 28.7474 11.0545 26.509L13.2958 42.9999H0.0615234L4.61758 20.9151Z" fill="#835E32"/>
<path fill-rule="evenodd" clip-rule="evenodd" d="M11.7159 11.1079C12.2225 18.4469 13.5625 22.1164 15.7361 22.1164C18.9965 22.1164 21.7628 19.9637 23.1935 19.9637C24.2363 19.9637 24.0035 21.321 23.3122 22.3273C22.7419 23.1575 19.9645 23.9578 19.9645 25.2449C19.9645 26.5321 22.1589 25.5363 22.1589 26.2997C22.1589 27.5624 22.5445 29.9366 20.4372 29.9366C18.3046 29.9366 12.1898 29.1283 11.1419 25.8364C10.4656 23.7119 10.0284 19.3096 9.83011 12.6295C9.70073 12.6135 9.56907 12.6053 9.43556 12.6053C7.60828 12.6053 6.12699 14.1458 6.12699 16.0462C6.12699 17.0109 6.50874 17.8829 7.1237 18.5077C6.35815 19.6315 5.50017 20.8055 4.51703 22.0169C0.823574 19.7123 -1.91718 12.966 1.69377 6.48519C2.69185 3.31036 4.95136 1.61456 7.6199 0.827148C9.78155 -0.113246 12.0255 -0.219277 13.9198 0.344481C17.6331 0.675722 20.9488 1.85329 21.8886 2.55262C21.8886 6.20871 21.2074 7.29347 15.3892 7.19785C13.9596 7.98306 12.8606 9.33518 11.7159 11.1079Z" fill="#FBE3BD"/>
</svg>
