<svg width="23" height="23" viewBox="0 0 23 23" fill="none" xmlns="http://www.w3.org/2000/svg">
<path d="M17.7769 4.25447C17.5146 4.25447 17.2581 4.33226 17.04 4.478C16.8219 4.62374 16.6519 4.83089 16.5515 5.07325C16.4511 5.31561 16.4249 5.58229 16.476 5.83957C16.5272 6.09686 16.6535 6.33319 16.839 6.51869C17.0245 6.70418 17.2609 6.8305 17.5181 6.88168C17.7754 6.93286 18.0421 6.90659 18.2845 6.8062C18.5268 6.70581 18.734 6.53581 18.8797 6.3177C19.0254 6.09958 19.1032 5.84314 19.1032 5.58082C19.1032 5.22905 18.9635 4.89169 18.7148 4.64295C18.466 4.39421 18.1287 4.25447 17.7769 4.25447ZM22.8612 6.92927C22.8397 6.01221 22.668 5.10488 22.3528 4.24342C22.0717 3.50634 21.6343 2.83891 21.0707 2.28706C20.5233 1.72052 19.8543 1.28586 19.1143 1.01598C18.2551 0.691201 17.3468 0.515515 16.4284 0.496493C15.2568 0.430176 14.881 0.430176 11.8747 0.430176C8.86827 0.430176 8.49248 0.430176 7.32087 0.496493C6.40254 0.515515 5.49421 0.691201 4.63502 1.01598C3.89633 1.2886 3.22792 1.72288 2.67866 2.28706C2.11212 2.83437 1.67747 3.50336 1.40758 4.24342C1.0828 5.10261 0.907117 6.01094 0.888095 6.92927C0.821777 8.10087 0.821777 8.47667 0.821777 11.4831C0.821777 14.4894 0.821777 14.8652 0.888095 16.0368C0.907117 16.9552 1.0828 17.8635 1.40758 18.7227C1.67747 19.4627 2.11212 20.1317 2.67866 20.6791C3.22792 21.2432 3.89633 21.6775 4.63502 21.9501C5.49421 22.2749 6.40254 22.4506 7.32087 22.4696C8.49248 22.5359 8.86827 22.5359 11.8747 22.5359C14.881 22.5359 15.2568 22.5359 16.4284 22.4696C17.3468 22.4506 18.2551 22.2749 19.1143 21.9501C19.8543 21.6802 20.5233 21.2456 21.0707 20.6791C21.6368 20.1293 22.0746 19.4612 22.3528 18.7227C22.668 17.8612 22.8397 16.9539 22.8612 16.0368C22.8612 14.8652 22.9275 14.4894 22.9275 11.4831C22.9275 8.47667 22.9275 8.10087 22.8612 6.92927ZM20.8717 15.9042C20.8637 16.6058 20.7366 17.301 20.4959 17.96C20.3194 18.4411 20.036 18.8757 19.6669 19.2311C19.3084 19.5964 18.8747 19.8793 18.3959 20.0601C17.7368 20.3008 17.0416 20.4278 16.34 20.4359C15.2347 20.4912 14.8258 20.5022 11.9189 20.5022C9.01196 20.5022 8.603 20.5022 7.49772 20.4359C6.76921 20.4495 6.04382 20.3374 5.35346 20.1043C4.89563 19.9143 4.48178 19.6321 4.13764 19.2753C3.77078 18.9203 3.49087 18.4853 3.31973 18.0043C3.04988 17.3357 2.90021 16.6248 2.87761 15.9042C2.87761 14.7989 2.8113 14.39 2.8113 11.4831C2.8113 8.57615 2.8113 8.16719 2.87761 7.0619C2.88257 6.34463 3.01351 5.63381 3.26446 4.96186C3.45905 4.49533 3.75771 4.07946 4.13764 3.74604C4.47344 3.36601 4.88845 3.06418 5.35346 2.86181C6.02719 2.61869 6.73728 2.49163 7.4535 2.48601C8.55879 2.48601 8.96775 2.41969 11.8747 2.41969C14.7816 2.41969 15.1905 2.41969 16.2958 2.48601C16.9974 2.49406 17.6926 2.62113 18.3516 2.86181C18.8539 3.04822 19.3047 3.35128 19.6669 3.74604C20.0291 4.08556 20.3122 4.50066 20.4959 4.96186C20.7416 5.6349 20.8687 6.34543 20.8717 7.0619C20.927 8.16719 20.938 8.57615 20.938 11.4831C20.938 14.39 20.927 14.7989 20.8717 15.9042ZM11.8747 5.81293C10.7537 5.81511 9.65851 6.14952 8.72752 6.77389C7.79653 7.39825 7.07149 8.28457 6.64403 9.32084C6.21657 10.3571 6.10585 11.4968 6.32588 12.596C6.54591 13.6952 7.08681 14.7045 7.88023 15.4963C8.67365 16.2882 9.68399 16.8271 10.7836 17.045C11.8832 17.2629 13.0227 17.15 14.0581 16.7205C15.0936 16.291 15.9785 15.5643 16.601 14.6321C17.2236 13.6999 17.5558 12.604 17.5558 11.4831C17.5573 10.7371 17.4113 9.99822 17.1261 9.30891C16.841 8.61959 16.4224 7.99345 15.8944 7.46649C15.3665 6.93954 14.7395 6.52217 14.0496 6.23839C13.3598 5.9546 12.6206 5.81001 11.8747 5.81293ZM11.8747 15.1637C11.1467 15.1637 10.4351 14.9478 9.82982 14.5434C9.22455 14.1389 8.75279 13.5641 8.47422 12.8916C8.19564 12.219 8.12275 11.479 8.26477 10.765C8.40679 10.051 8.75733 9.39521 9.27207 8.88047C9.78682 8.36573 10.4426 8.01519 11.1566 7.87317C11.8706 7.73115 12.6106 7.80404 13.2832 8.08262C13.9557 8.36119 14.5305 8.83294 14.935 9.43822C15.3394 10.0435 15.5553 10.7551 15.5553 11.4831C15.5553 11.9664 15.4601 12.445 15.2751 12.8916C15.0901 13.3381 14.819 13.7439 14.4772 14.0856C14.1355 14.4274 13.7297 14.6985 13.2832 14.8835C12.8366 15.0685 12.358 15.1637 11.8747 15.1637Z" fill="white"/>
</svg>
