<svg width="47" height="31" viewBox="0 0 47 31" fill="none" xmlns="http://www.w3.org/2000/svg">
<path d="M0.282165 29.3038C-0.102343 29.7002 -0.0926628 30.3333 0.303786 30.7178C0.700235 31.1023 1.33333 31.0927 1.71783 30.6962L0.282165 29.3038ZM46.1923 0L35.0857 3.15875L43.3746 11.1979L46.1923 0ZM23.8069 21.6003L24.5248 20.9041L23.8069 21.6003ZM25.2426 21.6003L24.5248 20.9041L25.2426 21.6003ZM17.1947 14.7827L16.4768 15.4789L17.1947 14.7827ZM1.71783 30.6962L16.4768 15.4789L15.0411 14.0865L0.282165 29.3038L1.71783 30.6962ZM16.4768 15.4789L23.0891 22.2965L24.5248 20.9041L17.9125 14.0865L16.4768 15.4789ZM25.9604 22.2965L40.6442 7.15672L39.2085 5.7643L24.5248 20.9041L25.9604 22.2965ZM23.0891 22.2965C23.8748 23.1066 25.1747 23.1066 25.9604 22.2965L24.5248 20.9041L24.5248 20.9041L23.0891 22.2965ZM16.4768 15.4789L16.4768 15.4789L17.9125 14.0865C17.1268 13.2764 15.8268 13.2764 15.0411 14.0865L16.4768 15.4789Z" fill="#B7864B"/>
</svg>
