<svg width="310" height="256" viewBox="0 0 310 256" fill="none" xmlns="http://www.w3.org/2000/svg">
<rect width="310" height="256" rx="5" fill="#D9D9D9"/>
<path d="M81.7095 70.1484V182.89H218.213V70.1484H81.7095ZM98.7724 84.2411H201.15V126.519L184.087 112.427L167.024 126.519L201.15 154.705V168.797H184.087L115.835 112.427L98.7724 126.519V84.2411Z" fill="#C5C5C5"/>
<rect width="310" height="256" rx="5" fill="#D9D9D9"/>
<path d="M81.7095 70.1484V182.89H218.213V70.1484H81.7095ZM98.7724 84.2411H201.15V126.519L184.087 112.427L167.024 126.519L201.15 154.705V168.797H184.087L115.835 112.427L98.7724 126.519V84.2411Z" fill="#C5C5C5"/>
<rect width="310" height="256" rx="5" fill="black" fill-opacity="0.27"/>
<g clip-path="url(#clip0_818_1517)">
<path d="M87.3213 121.203H89.5186V129.755C89.5186 130.728 89.3076 131.542 88.8857 132.198C88.4639 132.854 87.8896 133.35 87.1631 133.684C86.4424 134.012 85.6367 134.176 84.7461 134.176C83.8262 134.176 83.0059 134.012 82.2852 133.684C81.5645 133.35 80.9961 132.854 80.5801 132.198C80.1699 131.542 79.9648 130.728 79.9648 129.755V121.203H82.1621V129.755C82.1621 130.37 82.2676 130.877 82.4785 131.275C82.6895 131.668 82.9883 131.958 83.375 132.146C83.7617 132.333 84.2188 132.427 84.7461 132.427C85.2734 132.427 85.7275 132.333 86.1084 132.146C86.4951 131.958 86.7939 131.668 87.0049 131.275C87.2158 130.877 87.3213 130.37 87.3213 129.755V121.203ZM93.934 126.318V137.656H91.8158V124.49H93.767L93.934 126.318ZM100.13 129.157V129.342C100.13 130.033 100.048 130.675 99.8842 131.267C99.726 131.853 99.4887 132.365 99.1723 132.805C98.8617 133.238 98.4779 133.575 98.0209 133.815C97.5639 134.056 97.0365 134.176 96.4389 134.176C95.8471 134.176 95.3285 134.067 94.8832 133.851C94.4438 133.628 94.0717 133.314 93.767 132.91C93.4623 132.506 93.2162 132.031 93.0287 131.486C92.8471 130.936 92.7182 130.332 92.642 129.676V128.964C92.7182 128.267 92.8471 127.634 93.0287 127.065C93.2162 126.497 93.4623 126.008 93.767 125.598C94.0717 125.188 94.4438 124.871 94.8832 124.648C95.3227 124.426 95.8354 124.314 96.4213 124.314C97.0189 124.314 97.5492 124.432 98.0121 124.666C98.475 124.895 98.8646 125.223 99.1811 125.65C99.4975 126.072 99.7348 126.582 99.893 127.18C100.051 127.771 100.13 128.431 100.13 129.157ZM98.0121 129.342V129.157C98.0121 128.718 97.9711 128.311 97.8891 127.936C97.807 127.555 97.6781 127.221 97.5023 126.934C97.3266 126.646 97.101 126.424 96.8256 126.266C96.5561 126.102 96.2309 126.02 95.85 126.02C95.475 126.02 95.1527 126.084 94.8832 126.213C94.6137 126.336 94.3881 126.509 94.2064 126.731C94.0248 126.954 93.8842 127.215 93.7846 127.514C93.685 127.807 93.6146 128.126 93.5736 128.472V130.177C93.6439 130.599 93.7641 130.985 93.934 131.337C94.1039 131.688 94.3441 131.97 94.6547 132.181C94.9711 132.386 95.3754 132.488 95.8676 132.488C96.2484 132.488 96.5736 132.406 96.8432 132.242C97.1127 132.078 97.3324 131.853 97.5023 131.565C97.6781 131.272 97.807 130.936 97.8891 130.555C97.9711 130.174 98.0121 129.77 98.0121 129.342ZM104.3 120.5V134H102.173V120.5H104.3ZM106.316 129.351V129.148C106.316 128.463 106.415 127.827 106.614 127.241C106.814 126.649 107.101 126.137 107.476 125.703C107.857 125.264 108.32 124.924 108.864 124.684C109.415 124.438 110.036 124.314 110.728 124.314C111.425 124.314 112.046 124.438 112.591 124.684C113.142 124.924 113.608 125.264 113.988 125.703C114.369 126.137 114.659 126.649 114.859 127.241C115.058 127.827 115.157 128.463 115.157 129.148V129.351C115.157 130.036 115.058 130.672 114.859 131.258C114.659 131.844 114.369 132.356 113.988 132.796C113.608 133.229 113.145 133.569 112.6 133.815C112.055 134.056 111.437 134.176 110.745 134.176C110.048 134.176 109.424 134.056 108.873 133.815C108.328 133.569 107.865 133.229 107.485 132.796C107.104 132.356 106.814 131.844 106.614 131.258C106.415 130.672 106.316 130.036 106.316 129.351ZM108.434 129.148V129.351C108.434 129.778 108.478 130.183 108.566 130.563C108.654 130.944 108.791 131.278 108.979 131.565C109.166 131.853 109.406 132.078 109.699 132.242C109.992 132.406 110.341 132.488 110.745 132.488C111.138 132.488 111.478 132.406 111.765 132.242C112.058 132.078 112.298 131.853 112.486 131.565C112.673 131.278 112.811 130.944 112.899 130.563C112.992 130.183 113.039 129.778 113.039 129.351V129.148C113.039 128.727 112.992 128.328 112.899 127.953C112.811 127.572 112.67 127.235 112.477 126.942C112.289 126.649 112.049 126.421 111.756 126.257C111.469 126.087 111.126 126.002 110.728 126.002C110.329 126.002 109.984 126.087 109.691 126.257C109.404 126.421 109.166 126.649 108.979 126.942C108.791 127.235 108.654 127.572 108.566 127.953C108.478 128.328 108.434 128.727 108.434 129.148ZM122.394 132.093V127.558C122.394 127.218 122.333 126.925 122.21 126.679C122.087 126.433 121.899 126.242 121.647 126.107C121.401 125.973 121.09 125.905 120.715 125.905C120.37 125.905 120.071 125.964 119.819 126.081C119.567 126.198 119.371 126.356 119.23 126.556C119.089 126.755 119.019 126.98 119.019 127.232H116.91C116.91 126.857 117.001 126.494 117.182 126.143C117.364 125.791 117.628 125.478 117.973 125.202C118.319 124.927 118.732 124.71 119.213 124.552C119.693 124.394 120.232 124.314 120.83 124.314C121.545 124.314 122.177 124.435 122.728 124.675C123.285 124.915 123.721 125.278 124.038 125.765C124.36 126.245 124.521 126.849 124.521 127.575V131.803C124.521 132.236 124.55 132.626 124.609 132.972C124.673 133.312 124.764 133.607 124.881 133.859V134H122.711C122.611 133.771 122.532 133.481 122.473 133.13C122.421 132.772 122.394 132.427 122.394 132.093ZM122.702 128.217L122.719 129.526H121.199C120.806 129.526 120.461 129.564 120.162 129.641C119.863 129.711 119.614 129.816 119.415 129.957C119.215 130.098 119.066 130.268 118.966 130.467C118.867 130.666 118.817 130.892 118.817 131.144C118.817 131.396 118.876 131.627 118.993 131.838C119.11 132.043 119.28 132.204 119.503 132.321C119.731 132.438 120.006 132.497 120.329 132.497C120.762 132.497 121.14 132.409 121.463 132.233C121.791 132.052 122.048 131.832 122.236 131.574C122.423 131.311 122.523 131.062 122.535 130.827L123.22 131.768C123.15 132.008 123.03 132.266 122.86 132.541C122.69 132.816 122.467 133.08 122.192 133.332C121.922 133.578 121.597 133.78 121.216 133.938C120.841 134.097 120.408 134.176 119.916 134.176C119.295 134.176 118.741 134.053 118.254 133.807C117.768 133.555 117.387 133.218 117.112 132.796C116.837 132.368 116.699 131.885 116.699 131.346C116.699 130.842 116.793 130.396 116.98 130.01C117.173 129.617 117.455 129.289 117.824 129.025C118.199 128.762 118.656 128.562 119.195 128.428C119.734 128.287 120.349 128.217 121.041 128.217H122.702ZM132.637 132.031V120.5H134.764V134H132.839L132.637 132.031ZM126.449 129.351V129.166C126.449 128.445 126.534 127.789 126.704 127.197C126.874 126.6 127.12 126.087 127.442 125.659C127.765 125.226 128.157 124.895 128.62 124.666C129.083 124.432 129.604 124.314 130.185 124.314C130.759 124.314 131.263 124.426 131.696 124.648C132.13 124.871 132.499 125.19 132.804 125.606C133.108 126.017 133.352 126.509 133.533 127.083C133.715 127.651 133.844 128.284 133.92 128.981V129.57C133.844 130.25 133.715 130.871 133.533 131.434C133.352 131.996 133.108 132.482 132.804 132.893C132.499 133.303 132.127 133.619 131.688 133.842C131.254 134.064 130.747 134.176 130.167 134.176C129.593 134.176 129.074 134.056 128.611 133.815C128.154 133.575 127.765 133.238 127.442 132.805C127.12 132.371 126.874 131.861 126.704 131.275C126.534 130.684 126.449 130.042 126.449 129.351ZM128.567 129.166V129.351C128.567 129.784 128.605 130.188 128.682 130.563C128.764 130.938 128.89 131.27 129.06 131.557C129.229 131.838 129.449 132.061 129.719 132.225C129.994 132.383 130.322 132.462 130.703 132.462C131.184 132.462 131.579 132.356 131.89 132.146C132.2 131.935 132.443 131.65 132.619 131.293C132.801 130.93 132.924 130.525 132.988 130.08V128.489C132.953 128.144 132.88 127.821 132.769 127.522C132.663 127.224 132.52 126.963 132.338 126.74C132.156 126.512 131.931 126.336 131.661 126.213C131.397 126.084 131.084 126.02 130.721 126.02C130.334 126.02 130.006 126.102 129.736 126.266C129.467 126.43 129.244 126.655 129.068 126.942C128.898 127.229 128.772 127.563 128.69 127.944C128.608 128.325 128.567 128.732 128.567 129.166ZM147.462 132.031V120.5H149.589V134H147.664L147.462 132.031ZM141.274 129.351V129.166C141.274 128.445 141.359 127.789 141.529 127.197C141.699 126.6 141.945 126.087 142.267 125.659C142.59 125.226 142.982 124.895 143.445 124.666C143.908 124.432 144.429 124.314 145.01 124.314C145.584 124.314 146.088 124.426 146.521 124.648C146.955 124.871 147.324 125.19 147.629 125.606C147.933 126.017 148.177 126.509 148.358 127.083C148.54 127.651 148.669 128.284 148.745 128.981V129.57C148.669 130.25 148.54 130.871 148.358 131.434C148.177 131.996 147.933 132.482 147.629 132.893C147.324 133.303 146.952 133.619 146.513 133.842C146.079 134.064 145.572 134.176 144.992 134.176C144.418 134.176 143.899 134.056 143.436 133.815C142.979 133.575 142.59 133.238 142.267 132.805C141.945 132.371 141.699 131.861 141.529 131.275C141.359 130.684 141.274 130.042 141.274 129.351ZM143.392 129.166V129.351C143.392 129.784 143.43 130.188 143.507 130.563C143.589 130.938 143.715 131.27 143.885 131.557C144.054 131.838 144.274 132.061 144.544 132.225C144.819 132.383 145.147 132.462 145.528 132.462C146.009 132.462 146.404 132.356 146.715 132.146C147.025 131.935 147.268 131.65 147.444 131.293C147.626 130.93 147.749 130.525 147.813 130.08V128.489C147.778 128.144 147.705 127.821 147.594 127.522C147.488 127.224 147.345 126.963 147.163 126.74C146.981 126.512 146.756 126.336 146.486 126.213C146.222 126.084 145.909 126.02 145.546 126.02C145.159 126.02 144.831 126.102 144.561 126.266C144.292 126.43 144.069 126.655 143.893 126.942C143.723 127.229 143.597 127.563 143.515 127.944C143.433 128.325 143.392 128.732 143.392 129.166ZM156.096 134.176C155.393 134.176 154.757 134.062 154.189 133.833C153.626 133.599 153.146 133.273 152.747 132.857C152.355 132.441 152.053 131.952 151.842 131.39C151.631 130.827 151.526 130.221 151.526 129.57V129.219C151.526 128.475 151.634 127.801 151.851 127.197C152.068 126.594 152.369 126.078 152.756 125.65C153.143 125.217 153.6 124.886 154.127 124.657C154.654 124.429 155.226 124.314 155.841 124.314C156.521 124.314 157.115 124.429 157.625 124.657C158.135 124.886 158.557 125.208 158.891 125.624C159.231 126.034 159.483 126.523 159.647 127.092C159.817 127.66 159.902 128.287 159.902 128.973V129.878H152.554V128.357H157.81V128.19C157.798 127.81 157.722 127.452 157.581 127.118C157.446 126.784 157.238 126.515 156.957 126.31C156.676 126.104 156.301 126.002 155.832 126.002C155.481 126.002 155.167 126.078 154.892 126.23C154.622 126.377 154.397 126.591 154.215 126.872C154.033 127.153 153.893 127.493 153.793 127.892C153.699 128.284 153.653 128.727 153.653 129.219V129.57C153.653 129.986 153.708 130.373 153.82 130.73C153.937 131.082 154.107 131.39 154.329 131.653C154.552 131.917 154.821 132.125 155.138 132.277C155.454 132.424 155.815 132.497 156.219 132.497C156.729 132.497 157.183 132.395 157.581 132.189C157.98 131.984 158.325 131.694 158.618 131.319L159.735 132.4C159.529 132.699 159.263 132.986 158.935 133.262C158.607 133.531 158.205 133.751 157.731 133.921C157.262 134.091 156.717 134.176 156.096 134.176ZM168.504 124.49V134H166.377V124.49H168.504ZM166.236 121.994C166.236 121.672 166.342 121.405 166.553 121.194C166.77 120.978 167.068 120.869 167.449 120.869C167.824 120.869 168.12 120.978 168.337 121.194C168.554 121.405 168.662 121.672 168.662 121.994C168.662 122.311 168.554 122.574 168.337 122.785C168.12 122.996 167.824 123.102 167.449 123.102C167.068 123.102 166.77 122.996 166.553 122.785C166.342 122.574 166.236 122.311 166.236 121.994ZM173.042 126.424V134H170.924V124.49H172.919L173.042 126.424ZM172.7 128.894L171.979 128.885C171.979 128.229 172.061 127.622 172.225 127.065C172.389 126.509 172.629 126.025 172.946 125.615C173.262 125.199 173.655 124.88 174.123 124.657C174.598 124.429 175.146 124.314 175.767 124.314C176.201 124.314 176.596 124.379 176.954 124.508C177.317 124.631 177.63 124.827 177.894 125.097C178.163 125.366 178.369 125.712 178.509 126.134C178.656 126.556 178.729 127.065 178.729 127.663V134H176.611V127.848C176.611 127.385 176.54 127.021 176.4 126.758C176.265 126.494 176.069 126.307 175.811 126.195C175.559 126.078 175.257 126.02 174.906 126.02C174.507 126.02 174.167 126.096 173.886 126.248C173.611 126.4 173.385 126.608 173.209 126.872C173.034 127.136 172.905 127.44 172.823 127.786C172.741 128.132 172.7 128.501 172.7 128.894ZM178.597 128.331L177.604 128.551C177.604 127.977 177.683 127.435 177.841 126.925C178.005 126.409 178.243 125.958 178.553 125.571C178.87 125.179 179.259 124.871 179.722 124.648C180.185 124.426 180.715 124.314 181.313 124.314C181.799 124.314 182.233 124.382 182.614 124.517C183 124.646 183.329 124.851 183.598 125.132C183.868 125.413 184.073 125.779 184.213 126.23C184.354 126.676 184.424 127.215 184.424 127.848V134H182.297V127.839C182.297 127.358 182.227 126.986 182.086 126.723C181.952 126.459 181.758 126.277 181.506 126.178C181.254 126.072 180.953 126.02 180.601 126.02C180.273 126.02 179.983 126.081 179.731 126.204C179.485 126.321 179.277 126.488 179.107 126.705C178.937 126.916 178.808 127.159 178.72 127.435C178.638 127.71 178.597 128.009 178.597 128.331ZM192.065 132.093V127.558C192.065 127.218 192.004 126.925 191.881 126.679C191.758 126.433 191.57 126.242 191.318 126.107C191.072 125.973 190.762 125.905 190.387 125.905C190.041 125.905 189.742 125.964 189.49 126.081C189.238 126.198 189.042 126.356 188.901 126.556C188.761 126.755 188.69 126.98 188.69 127.232H186.581C186.581 126.857 186.672 126.494 186.853 126.143C187.035 125.791 187.299 125.478 187.644 125.202C187.99 124.927 188.403 124.71 188.884 124.552C189.364 124.394 189.903 124.314 190.501 124.314C191.216 124.314 191.848 124.435 192.399 124.675C192.956 124.915 193.392 125.278 193.709 125.765C194.031 126.245 194.192 126.849 194.192 127.575V131.803C194.192 132.236 194.221 132.626 194.28 132.972C194.345 133.312 194.435 133.607 194.553 133.859V134H192.382C192.282 133.771 192.203 133.481 192.144 133.13C192.092 132.772 192.065 132.427 192.065 132.093ZM192.373 128.217L192.39 129.526H190.87C190.477 129.526 190.132 129.564 189.833 129.641C189.534 129.711 189.285 129.816 189.086 129.957C188.887 130.098 188.737 130.268 188.637 130.467C188.538 130.666 188.488 130.892 188.488 131.144C188.488 131.396 188.547 131.627 188.664 131.838C188.781 132.043 188.951 132.204 189.174 132.321C189.402 132.438 189.678 132.497 190 132.497C190.433 132.497 190.811 132.409 191.134 132.233C191.462 132.052 191.72 131.832 191.907 131.574C192.095 131.311 192.194 131.062 192.206 130.827L192.891 131.768C192.821 132.008 192.701 132.266 192.531 132.541C192.361 132.816 192.138 133.08 191.863 133.332C191.594 133.578 191.268 133.78 190.887 133.938C190.512 134.097 190.079 134.176 189.587 134.176C188.966 134.176 188.412 134.053 187.926 133.807C187.439 133.555 187.058 133.218 186.783 132.796C186.508 132.368 186.37 131.885 186.37 131.346C186.37 130.842 186.464 130.396 186.651 130.01C186.845 129.617 187.126 129.289 187.495 129.025C187.87 128.762 188.327 128.562 188.866 128.428C189.405 128.287 190.02 128.217 190.712 128.217H192.373ZM202.598 124.49H204.523V133.736C204.523 134.592 204.341 135.318 203.978 135.916C203.614 136.514 203.108 136.968 202.457 137.278C201.807 137.595 201.054 137.753 200.198 137.753C199.835 137.753 199.431 137.7 198.986 137.595C198.546 137.489 198.118 137.319 197.702 137.085C197.292 136.856 196.949 136.555 196.674 136.18L197.667 134.932C198.007 135.336 198.382 135.632 198.792 135.819C199.202 136.007 199.633 136.101 200.084 136.101C200.571 136.101 200.984 136.01 201.323 135.828C201.669 135.652 201.936 135.392 202.123 135.046C202.311 134.7 202.404 134.278 202.404 133.78V126.644L202.598 124.49ZM196.138 129.351V129.166C196.138 128.445 196.226 127.789 196.402 127.197C196.577 126.6 196.829 126.087 197.157 125.659C197.486 125.226 197.884 124.895 198.353 124.666C198.821 124.432 199.352 124.314 199.944 124.314C200.559 124.314 201.083 124.426 201.517 124.648C201.956 124.871 202.322 125.19 202.615 125.606C202.908 126.017 203.137 126.509 203.301 127.083C203.471 127.651 203.597 128.284 203.679 128.981V129.57C203.603 130.25 203.474 130.871 203.292 131.434C203.111 131.996 202.87 132.482 202.571 132.893C202.273 133.303 201.904 133.619 201.464 133.842C201.03 134.064 200.518 134.176 199.926 134.176C199.346 134.176 198.821 134.056 198.353 133.815C197.89 133.575 197.491 133.238 197.157 132.805C196.829 132.371 196.577 131.861 196.402 131.275C196.226 130.684 196.138 130.042 196.138 129.351ZM198.256 129.166V129.351C198.256 129.784 198.297 130.188 198.379 130.563C198.467 130.938 198.599 131.27 198.775 131.557C198.956 131.838 199.185 132.061 199.46 132.225C199.741 132.383 200.072 132.462 200.453 132.462C200.951 132.462 201.359 132.356 201.675 132.146C201.997 131.935 202.243 131.65 202.413 131.293C202.589 130.93 202.712 130.525 202.782 130.08V128.489C202.747 128.144 202.674 127.821 202.563 127.522C202.457 127.224 202.314 126.963 202.132 126.74C201.95 126.512 201.722 126.336 201.446 126.213C201.171 126.084 200.846 126.02 200.471 126.02C200.09 126.02 199.759 126.102 199.478 126.266C199.196 126.43 198.965 126.655 198.783 126.942C198.608 127.229 198.476 127.563 198.388 127.944C198.3 128.325 198.256 128.732 198.256 129.166ZM211.012 134.176C210.309 134.176 209.673 134.062 209.105 133.833C208.543 133.599 208.062 133.273 207.664 132.857C207.271 132.441 206.969 131.952 206.758 131.39C206.547 130.827 206.442 130.221 206.442 129.57V129.219C206.442 128.475 206.55 127.801 206.767 127.197C206.984 126.594 207.286 126.078 207.672 125.65C208.059 125.217 208.516 124.886 209.044 124.657C209.571 124.429 210.142 124.314 210.757 124.314C211.437 124.314 212.032 124.429 212.542 124.657C213.051 124.886 213.473 125.208 213.807 125.624C214.147 126.034 214.399 126.523 214.563 127.092C214.733 127.66 214.818 128.287 214.818 128.973V129.878H207.47V128.357H212.726V128.19C212.714 127.81 212.638 127.452 212.498 127.118C212.363 126.784 212.155 126.515 211.874 126.31C211.592 126.104 211.217 126.002 210.749 126.002C210.397 126.002 210.084 126.078 209.808 126.23C209.539 126.377 209.313 126.591 209.131 126.872C208.95 127.153 208.809 127.493 208.71 127.892C208.616 128.284 208.569 128.727 208.569 129.219V129.57C208.569 129.986 208.625 130.373 208.736 130.73C208.853 131.082 209.023 131.39 209.246 131.653C209.468 131.917 209.738 132.125 210.054 132.277C210.371 132.424 210.731 132.497 211.135 132.497C211.645 132.497 212.099 132.395 212.498 132.189C212.896 131.984 213.242 131.694 213.535 131.319L214.651 132.4C214.446 132.699 214.179 132.986 213.851 133.262C213.523 133.531 213.122 133.751 212.647 133.921C212.178 134.091 211.633 134.176 211.012 134.176ZM218.688 126.424V134H216.57V124.49H218.565L218.688 126.424ZM218.346 128.894L217.625 128.885C217.625 128.229 217.707 127.622 217.871 127.065C218.035 126.509 218.275 126.025 218.592 125.615C218.908 125.199 219.301 124.88 219.77 124.657C220.244 124.429 220.792 124.314 221.413 124.314C221.847 124.314 222.242 124.379 222.6 124.508C222.963 124.631 223.276 124.827 223.54 125.097C223.81 125.366 224.015 125.712 224.155 126.134C224.302 126.556 224.375 127.065 224.375 127.663V134H222.257V127.848C222.257 127.385 222.187 127.021 222.046 126.758C221.911 126.494 221.715 126.307 221.457 126.195C221.205 126.078 220.903 126.02 220.552 126.02C220.153 126.02 219.813 126.096 219.532 126.248C219.257 126.4 219.031 126.608 218.855 126.872C218.68 127.136 218.551 127.44 218.469 127.786C218.387 128.132 218.346 128.501 218.346 128.894ZM224.243 128.331L223.25 128.551C223.25 127.977 223.329 127.435 223.487 126.925C223.651 126.409 223.889 125.958 224.199 125.571C224.516 125.179 224.905 124.871 225.368 124.648C225.831 124.426 226.361 124.314 226.959 124.314C227.445 124.314 227.879 124.382 228.26 124.517C228.646 124.646 228.975 124.851 229.244 125.132C229.514 125.413 229.719 125.779 229.859 126.23C230 126.676 230.07 127.215 230.07 127.848V134H227.943V127.839C227.943 127.358 227.873 126.986 227.732 126.723C227.598 126.459 227.404 126.277 227.152 126.178C226.9 126.072 226.599 126.02 226.247 126.02C225.919 126.02 225.629 126.081 225.377 126.204C225.131 126.321 224.923 126.488 224.753 126.705C224.583 126.916 224.454 127.159 224.366 127.435C224.284 127.71 224.243 128.009 224.243 128.331Z" fill="black"/>
</g>
<rect x="64.5" y="103.5" width="181" height="49" rx="24.5" stroke="black"/>
<defs>
<clipPath id="clip0_818_1517">
<rect x="64" y="103" width="182" height="50" rx="25" fill="white"/>
</clipPath>
</defs>
</svg>
