<svg width="25" height="25" viewBox="0 0 24 25" fill="none" xmlns="http://www.w3.org/2000/svg">
<path d="M20.4428 4.20943C19.3524 3.10893 18.0539 2.23644 16.6229 1.64281C15.1919 1.04918 13.6571 0.746292 12.1079 0.751782C5.61622 0.751782 0.325693 6.04083 0.319747 12.534C0.319747 14.6136 0.863814 16.6368 1.891 18.428L0.224609 24.5361L6.47395 22.898C8.20278 23.8388 10.1396 24.332 12.1079 24.3325H12.1138C18.6069 24.3325 23.896 19.0434 23.9019 12.5444C23.9034 10.9955 23.5984 9.46159 23.0045 8.0311C22.4105 6.60061 21.5409 5.30178 20.4428 4.20943ZM12.1079 22.3376C10.3523 22.3382 8.62896 21.8657 7.1191 20.97L6.76233 20.7559L3.05495 21.7281L4.04497 18.1114L3.81307 17.7383C2.83168 16.1779 2.31265 14.3713 2.31615 12.528C2.31615 7.13788 6.71179 2.74075 12.1138 2.74075C13.4008 2.73844 14.6754 2.99089 15.8643 3.48355C17.0533 3.97621 18.1329 4.69933 19.041 5.61122C19.9523 6.51956 20.6747 7.59933 21.1666 8.78826C21.6585 9.97719 21.9102 11.2517 21.907 12.5384C21.9011 17.9479 17.5054 22.3376 12.1079 22.3376ZM17.4816 15.0031C17.1888 14.8559 15.7424 14.1439 15.4704 14.0428C15.1998 13.9462 15.0021 13.8956 14.8089 14.1899C14.6112 14.4828 14.0463 15.1502 13.8768 15.342C13.7074 15.5397 13.532 15.562 13.2376 15.4163C12.9448 15.2677 11.9949 14.9585 10.8711 13.9521C9.99403 13.1717 9.40686 12.2054 9.23145 11.9126C9.06198 11.6183 9.21509 11.4607 9.36226 11.3135C9.49159 11.1827 9.65511 10.9686 9.80227 10.7992C9.95092 10.6297 9.99998 10.5049 10.0966 10.3086C10.1932 10.1094 10.1471 9.93997 10.0743 9.79281C9.99998 9.64564 9.4128 8.19331 9.16455 7.60762C8.92671 7.02936 8.68441 7.10964 8.50305 7.1022C8.33359 7.0918 8.13588 7.0918 7.93817 7.0918C7.78887 7.09551 7.64195 7.13004 7.50663 7.19323C7.3713 7.25641 7.2505 7.34688 7.1518 7.45897C6.88126 7.7533 6.12462 8.46534 6.12462 9.91768C6.12462 11.37 7.18005 12.7659 7.3287 12.9636C7.47438 13.1613 9.40091 16.1328 12.3576 17.4112C13.0563 17.716 13.6063 17.8958 14.0359 18.0326C14.742 18.2586 15.3797 18.2244 15.8881 18.1515C16.453 18.0653 17.6288 17.438 17.8771 16.7497C18.1208 16.06 18.1208 15.4713 18.0465 15.3479C17.9737 15.2231 17.776 15.1502 17.4816 15.0031Z" fill="white"/>
</svg>
